<svg xmlns="http://www.w3.org/2000/svg" width="16.91" height="14" viewBox="0 0 16.91 14">
  <path id="Path_1018" data-name="Path 1018" d="M12.115,35.514h0a4.752,4.752,0,0,0-3.66,1.691,4.688,4.688,0,0,0-3.66-1.691A4.8,4.8,0,0,0,0,40.309c0,4.538,7.92,8.969,8.241,9.14a.385.385,0,0,0,.428,0c.321-.171,8.241-4.538,8.241-9.14A4.8,4.8,0,0,0,12.115,35.514ZM8.455,48.593c-1.241-.728-7.6-4.6-7.6-8.284a3.939,3.939,0,0,1,3.939-3.939,3.853,3.853,0,0,1,3.3,1.777.45.45,0,0,0,.728,0,3.939,3.939,0,0,1,7.235,2.162C16.054,44.034,9.7,47.887,8.455,48.593Z" transform="translate(0 -35.514)" fill="#231e1e"/>
</svg>
