<svg xmlns="http://www.w3.org/2000/svg" width="23" height="21.85" viewBox="0 0 23 21.85">
  <path id="Path_1028" data-name="Path 1028" d="M11.507,1.2A7.55,7.55,0,0,1,17.849.348a7.139,7.139,0,0,1,4.272,3.67,9.085,9.085,0,0,1,.386,6.854A14.4,14.4,0,0,1,19.1,16.35a27.446,27.446,0,0,1-3.237,2.843h0l-.061.052a.833.833,0,0,1-1.157-.227.86.86,0,0,1-.148-.643.849.849,0,0,1,.35-.556,26.836,26.836,0,0,0,3.044-2.677,12.589,12.589,0,0,0,3.044-4.807,7.3,7.3,0,0,0-.345-5.52A5.5,5.5,0,0,0,17.311,2,5.8,5.8,0,0,0,12,2.943a.84.84,0,0,1-1.015,0A5.788,5.788,0,0,0,5.682,2,5.5,5.5,0,0,0,2.374,4.8a7.36,7.36,0,0,0-.325,5.5,12.629,12.629,0,0,0,3.044,4.8,37.995,37.995,0,0,0,6.616,5.169.877.877,0,0,1,.33.964.855.855,0,0,1-.8.618.811.811,0,0,1-.467-.145,39.452,39.452,0,0,1-6.89-5.386,14.219,14.219,0,0,1-3.42-5.479A9.137,9.137,0,0,1,.893,4.018,7.139,7.139,0,0,1,5.165.348,7.55,7.55,0,0,1,11.507,1.2Zm4.336,3.4h.129A3.986,3.986,0,0,1,18.7,8.06h0l.007.135a.858.858,0,0,1-.176.5.829.829,0,0,1-.561.32.855.855,0,0,1-.954-.744A2.268,2.268,0,0,0,15.454,6.2.876.876,0,0,1,15.1,5.191a.853.853,0,0,1,.876-.594Z"/>
</svg>
