<svg xmlns="http://www.w3.org/2000/svg" width="8.907" height="16.512" viewBox="0 0 8.907 16.512">
  <path id="Icon_11_" d="M30.88,19.42H28.834c-.331,0-.434-.124-.434-.434v-2.5c0-.331.124-.434.434-.434H30.88V14.233a4.59,4.59,0,0,1,.558-2.335,3.429,3.429,0,0,1,1.839-1.529,4.6,4.6,0,0,1,1.591-.269h2.025c.289,0,.413.124.413.413v2.356c0,.289-.124.413-.413.413-.558,0-1.116,0-1.674.021a.746.746,0,0,0-.847.847c-.021.62,0,1.219,0,1.86h2.4c.331,0,.455.124.455.455v2.5c0,.331-.1.434-.455.434h-2.4v6.737c0,.351-.1.475-.475.475H31.314c-.31,0-.434-.124-.434-.434V19.42Z" transform="translate(-28.4 -10.1)" fill="#fcfcfc"/>
</svg>
