<svg xmlns="http://www.w3.org/2000/svg" width="18" height="22.023" viewBox="0 0 18 22.023">
  <g id="Group_366" data-name="Group 366" transform="translate(-77 -281.462)">
    <path id="Combined-Shape" d="M12.361,0C15.944,0,18,1.774,18,4.864V20.219a1.8,1.8,0,0,1-2.677,1.563l-6.3-3.557L2.672,21.79A1.8,1.8,0,0,1,0,20.225V4.67C0,1.7,2.057,0,5.643,0Zm0,1.585H5.643c-2.693,0-4.059,1.037-4.059,3.086V20.225a.2.2,0,0,0,.1.181.2.2,0,0,0,.209,0L8.64,16.626a.8.8,0,0,1,.778,0L16.1,20.4a.2.2,0,0,0,.21,0,.2.2,0,0,0,.1-.182V4.743C16.407,3.834,16.231,1.585,12.361,1.585Zm.464,5.523a.792.792,0,0,1,0,1.585H5.094a.792.792,0,0,1,0-1.585Z" transform="translate(77 281.462)" fill-rule="evenodd"/>
  </g>
</svg>
