<svg xmlns="http://www.w3.org/2000/svg" width="30" height="27.209" viewBox="0 0 30 27.209">
  <g id="Iconly_Light-Outline_Message" data-name="Iconly/Light-Outline/Message" transform="translate(-1 -2)">
    <g id="Message" transform="translate(1 2)">
      <path id="Combined-Shape" d="M21.85,1C26.5,1,30,4.791,30,9.819V19.4a9.127,9.127,0,0,1-2.563,6.547,7.714,7.714,0,0,1-5.565,2.26H8.124a7.708,7.708,0,0,1-5.56-2.26A9.127,9.127,0,0,1,0,19.4V9.819C0,4.791,3.5,1,8.15,1Zm0,2.093H8.15c-3.509,0-6.057,2.828-6.057,6.726V19.4a7.05,7.05,0,0,0,1.948,5.064,5.652,5.652,0,0,0,4.087,1.651H21.85s.014,0,.022,0a5.65,5.65,0,0,0,4.087-1.651A7.044,7.044,0,0,0,27.907,19.4V9.819C27.907,5.921,25.359,3.093,21.85,3.093Zm2.2,6.459a1.047,1.047,0,0,1-.152,1.472l-6.2,5.04a4.244,4.244,0,0,1-5.3.008L6.137,11.027A1.046,1.046,0,1,1,7.45,9.4l6.253,5.04a2.154,2.154,0,0,0,2.683-.006L22.575,9.4A1.045,1.045,0,0,1,24.049,9.552Z" transform="translate(0 -1)" fill="#7768cc" fill-rule="evenodd"/>
    </g>
  </g>
</svg>
