<svg xmlns="http://www.w3.org/2000/svg" width="23.994" height="24.619" viewBox="0 0 23.994 24.619">
  <path id="Icon_ionic-ios-search" data-name="Icon ionic-ios-search" d="M28.213,27.33l-6.673-6.91A9.947,9.947,0,0,0,23.633,14.3a9.687,9.687,0,0,0-9.566-9.807A9.692,9.692,0,0,0,4.5,14.306a9.687,9.687,0,0,0,9.566,9.807,9.386,9.386,0,0,0,6.03-2.192l6.63,6.865a1.01,1.01,0,0,0,.744.327,1,1,0,0,0,.706-.288A1.08,1.08,0,0,0,28.213,27.33ZM14.066,22a7.369,7.369,0,0,1-5.311-2.256,7.832,7.832,0,0,1,0-10.883,7.379,7.379,0,0,1,10.622,0,7.832,7.832,0,0,1,0,10.883A7.369,7.369,0,0,1,14.066,22Z" transform="translate(-4.5 -4.493)" fill="#6a6680"/>
</svg>
