                            <svg xmlns="http://www.w3.org/2000/svg" width="30" height="28.5" viewBox="0 0 30 28.5">
                                <g id="Iconly_Broken_Heart" data-name="Iconly/Broken/Heart"
                                    transform="translate(3 -2.5)">
                                    <g id="Heart" transform="translate(2 2.5)">
                                        <path id="Path_1028" data-name="Path 1028"
                                            d="M15.009,1.56A9.847,9.847,0,0,1,23.281.454a9.312,9.312,0,0,1,5.572,4.787,11.85,11.85,0,0,1,.5,8.94,18.777,18.777,0,0,1-4.447,7.146,35.8,35.8,0,0,1-4.222,3.708h0l-.079.067a1.086,1.086,0,0,1-1.509-.3,1.121,1.121,0,0,1-.192-.839,1.108,1.108,0,0,1,.457-.725,35,35,0,0,0,3.971-3.492,16.42,16.42,0,0,0,3.971-6.27,9.518,9.518,0,0,0-.45-7.2,7.17,7.17,0,0,0-4.275-3.668,7.563,7.563,0,0,0-6.922,1.227,1.1,1.1,0,0,1-1.323,0A7.55,7.55,0,0,0,7.412,2.611,7.167,7.167,0,0,0,3.1,6.265a9.6,9.6,0,0,0-.424,7.173A16.472,16.472,0,0,0,6.644,19.7a49.558,49.558,0,0,0,8.63,6.742,1.144,1.144,0,0,1,.431,1.257,1.115,1.115,0,0,1-1.04.806,1.058,1.058,0,0,1-.609-.189,51.458,51.458,0,0,1-8.987-7.025A18.546,18.546,0,0,1,.609,14.14a11.918,11.918,0,0,1,.556-8.9A9.312,9.312,0,0,1,6.737.454,9.848,9.848,0,0,1,15.009,1.56ZM20.664,6h.168a5.2,5.2,0,0,1,3.56,4.517h0l.009.176a1.119,1.119,0,0,1-.23.647,1.081,1.081,0,0,1-.731.417,1.116,1.116,0,0,1-1.244-.971,2.958,2.958,0,0,0-2.038-2.7,1.143,1.143,0,0,1-.467-1.315A1.112,1.112,0,0,1,20.832,6Z"
                                            transform="translate(-5 0)" />
                                    </g>
                                </g>
                            </svg>