                            <svg xmlns="http://www.w3.org/2000/svg" width="30" height="30" viewBox="0 0 30 30">
                                <g id="left_chat" transform="translate(-2 -2)">
                                    <g id="Chat" transform="translate(2 2)">
                                        <path id="Path_1030" data-name="Path 1030"
                                            d="M15.01,0a15,15,0,0,1-.017,30,14.886,14.886,0,0,1-3.222-.353,1.124,1.124,0,1,1,.487-2.194,12.753,12.753,0,1,0,2.75-25.207h0A12.756,12.756,0,0,0,3.69,20.9h0l.288.563a2.945,2.945,0,0,1,.2,2.224,25.677,25.677,0,0,0-.8,2.449c.843-.254,1.872-.628,2.616-.9H6l.305-.11a1.123,1.123,0,0,1,.764,2.112h0l-.3.11a35.633,35.633,0,0,1-3.662,1.187,1.16,1.16,0,0,1-.267.028A1.81,1.81,0,0,1,1.5,28.046a1.966,1.966,0,0,1-.5-1.5,1.147,1.147,0,0,1,.029-.221,26.273,26.273,0,0,1,1.034-3.368.7.7,0,0,0-.074-.464h0l-.289-.562A15,15,0,0,1,14.993,0h.017Zm-.017,13.214A1.784,1.784,0,1,1,13.21,15,1.785,1.785,0,0,1,14.994,13.214Zm6.6,0A1.784,1.784,0,1,1,19.815,15,1.785,1.785,0,0,1,21.6,13.214Zm-13.21,0A1.783,1.783,0,1,1,6.605,15,1.785,1.785,0,0,1,8.389,13.215Z"
                                            transform="translate(0)" />
                                    </g>
                                </g>
                            </svg>