                            <svg xmlns="http://www.w3.org/2000/svg" width="30" height="36.705" viewBox="0 0 30 36.705">
                                <g id="Iconly_Light-Outline_Bookmark" data-name="Iconly/Light-Outline/Bookmark"
                                    transform="translate(2.817 -2)">
                                    <g id="Bookmark" transform="translate(3 2)">
                                        <path id="Combined-Shape"
                                            d="M20.6,0C26.574,0,30,2.956,30,8.106V33.7A2.993,2.993,0,0,1,25.538,36.3L15.045,30.377l-10.59,5.94A2.994,2.994,0,0,1,0,33.708V7.784C0,2.836,3.428,0,9.405,0Zm0,2.641H9.405c-4.488,0-6.764,1.729-6.764,5.143V33.708a.333.333,0,0,0,.174.3.329.329,0,0,0,.349,0l11.237-6.3a1.326,1.326,0,0,1,1.3,0L26.836,34a.329.329,0,0,0,.35,0,.337.337,0,0,0,.173-.3V7.905C27.345,6.39,27.052,2.641,20.6,2.641Zm.773,9.206a1.32,1.32,0,0,1,0,2.641H8.489a1.32,1.32,0,1,1,0-2.641Z"
                                            transform="translate(-5.816 0)" fill-rule="evenodd" />
                                    </g>
                                </g>
                            </svg>